<svg width="270" height="92" viewBox="0 0 270 92" fill="none" xmlns="http://www.w3.org/2000/svg">
<path d="M263.787 63.3327L269.44 47.4717L247.68 6.90082H247.467H29.5467L28.8 7.40169L17.0133 15.1374L9.38665 20.0905L9.33333 19.9792L6.61333 21.7601L10.4 28.9949L10.5067 28.828L12.48 32.668L6.82666 42.5186V49.4751L1.28 85.0929H1.06667L0 91.9938H0.159993H10.8267H255.68H269.28H269.44L265.387 71.5136L263.787 63.3327Z" fill="#AE015C"/>
<path d="M265.388 64.6128L269.441 85.093H0.161133L3.68114 62.7763L6.8278 42.5187V35.6177L12.4811 25.7116L6.8278 14.8593L17.0145 8.18095L28.8011 0.500874L29.5478 0H247.681L269.441 40.5708L263.788 56.3762L265.388 64.6128Z" fill="url(#paint0_radial_85_5)"/>
<g opacity="0.54">
<path opacity="0.54" d="M144.107 26.7134H239.894C220.907 24.7099 144.107 26.7134 144.107 26.7134Z" fill="#CA0C70"/>
<path opacity="0.54" d="M269.44 40.5708L247.68 0H247.467L241.76 5.95484L244.64 11.854L197.227 14.8593L247.467 16.8071V29.6629L256 38.5673H219.04L256 43.5204L248.427 55.4301L254.08 72.2372L237.973 74.1851L255.04 76.1886L255.2 78.1921H10.0267L9.49333 73.239V63.3328H128.96L9.49333 61.3293L12.32 45.5239L9.49333 34.616H37.92L14.1867 31.6664L12.32 27.7151H43.6267L12.32 20.7585V14.8593L28.8 0.500874L9.38665 13.1897L9.33333 13.0784L6.61333 14.8593L10.4 22.0941L10.5067 21.9272L12.48 25.7116L6.82666 35.6177V42.5187L1.28 78.1921H1.06667L0 85.093H0.159993H10.8267H255.68H269.28H269.44L263.787 56.3762L269.44 40.5708Z" fill="#800043"/>
</g>
<g opacity="0.55">
<path opacity="0.28" d="M227.786 31.4437C239.253 24.4315 234.56 5.73215 220.746 9.68349C201.92 15.0818 216.32 38.4559 227.786 31.4437Z" fill="#FFA2D3"/>
<path opacity="0.28" d="M212.854 42.1289C217.654 39.1793 215.681 31.2766 209.921 32.9462C201.921 35.2836 208.001 45.1341 212.854 42.1289Z" fill="#FFA2D3"/>
<path opacity="0.28" d="M202.454 25.3777C206.4 23.5968 210.454 18.1985 202.294 11.9653C194.134 5.73225 188.267 31.7777 202.454 25.3777Z" fill="#FFA2D3"/>
</g>
<path opacity="0.35" d="M269.441 85.093H0.161133L3.6278 62.7762L6.77446 42.5186V35.6177L12.4811 25.7115L6.8278 14.8592L17.0145 8.23657C55.2011 15.694 99.4678 19.4784 116.588 43.4091C144.534 82.4773 217.708 52.9813 265.441 64.6684L269.441 85.093Z" fill="#FF1490"/>
<g opacity="0.61">
<path opacity="0.28" d="M23.2011 41.7394C15.0411 47.5829 19.4678 61.2178 29.4945 57.4891C43.2011 52.4804 31.3611 35.8958 23.2011 41.7394Z" fill="#FFA2D3"/>
<path opacity="0.28" d="M42.2933 44.8558C39.4666 46.4141 36.7466 50.588 43.0933 54.8176C49.4399 58.9916 52.5333 39.2905 42.2933 44.8558Z" fill="#FFA2D3"/>
</g>
<defs>
<radialGradient id="paint0_radial_85_5" cx="0" cy="0" r="1" gradientUnits="userSpaceOnUse" gradientTransform="translate(134.821 42.5455) scale(99.4768 103.803)">
<stop stop-color="#FF41A5"/>
<stop offset="1" stop-color="#E81082"/>
</radialGradient>
</defs>
</svg>
